<?xml version="1.0" encoding="UTF-8"?>
<svg version="1.1" xmlns="http://www.w3.org/2000/svg" width="128" height="108">
<path d="M0 0 C42.24 0 84.48 0 128 0 C128 35.64 128 71.28 128 108 C85.76 108 43.52 108 0 108 C0 72.36 0 36.72 0 0 Z " fill="#6B75D9" transform="translate(0,0)"/>
<path d="M0 0 C4.55555556 0.55555556 4.55555556 0.55555556 6 2 C6.09304018 3.47354348 6.11746265 4.95150591 6.11352539 6.42797852 C6.11344986 7.36887833 6.11337433 8.30977814 6.11329651 9.27919006 C6.10813522 10.30209641 6.10297394 11.32500275 6.09765625 12.37890625 C6.0962413 13.42070541 6.09482635 14.46250458 6.09336853 15.53587341 C6.0877508 18.87811094 6.0751953 22.22028257 6.0625 25.5625 C6.05748728 27.82226466 6.05292398 30.08203037 6.04882812 32.34179688 C6.03777561 37.89455391 6.02102024 43.44727225 6 49 C6.78785889 49.1335791 7.57571777 49.2671582 8.38745117 49.40478516 C11.46491726 50.10592172 12.34474744 50.96488446 14.3125 53.375 C15.08013672 54.28378906 15.08013672 54.28378906 15.86328125 55.2109375 C17 57 17 57 17 60 C27.97243652 56.37039829 36.15560059 52.34009126 42 42 C43.71820425 38.3827279 44.447463 34.95984851 45 31 C44.278125 30.79375 43.55625 30.5875 42.8125 30.375 C38.73014189 28.37918048 36.00380211 25.31646641 34.1875 21.125 C33.39664804 12.16201117 33.39664804 12.16201117 35.6875 7.75 C38.42686493 4.49237684 41.17742722 1.91128639 45 0 C50.84460492 -0.3962444 54.77196458 0.04073467 60 3 C63.65336295 6.54008038 65.90163311 9.54908842 66.25 14.6875 C66.16037149 19.6349937 65.01439945 23.82048585 61.5703125 27.546875 C58.93902275 29.87707189 57.58405576 31 54 31 C53.9175 32.11375 53.835 33.2275 53.75 34.375 C52.27928879 45.24298283 47.10911148 52.72464223 39 60 C32.15591183 64.94076106 25.33293421 67.06516405 17 68 C16.90332031 68.75796875 16.80664062 69.5159375 16.70703125 70.296875 C15.90383088 73.36767419 15.11120731 74.27781846 12.6875 76.25 C12.09324219 76.75015625 11.49898437 77.2503125 10.88671875 77.765625 C6.76822346 80.46012709 1.79876417 80.66700969 -3 80 C-7.77678628 77.51974559 -11.65065877 74.26090798 -13.75 69.1875 C-14.74934952 60.44319167 -14.74934952 60.44319167 -12.3125 55.75 C-10.0394533 53.04691744 -7.93758542 50.95839028 -5 49 C-4.01 49 -3.02 49 -2 49 C-2.00444122 48.41562164 -2.00888245 47.83124329 -2.01345825 47.22915649 C-2.05760762 41.16256142 -2.08783134 35.09601177 -2.10986328 29.02929688 C-2.11993859 26.76332751 -2.13359918 24.49737119 -2.15087891 22.23144531 C-2.17506011 18.97978499 -2.18646763 15.72829613 -2.1953125 12.4765625 C-2.20563507 11.45881744 -2.21595764 10.44107239 -2.22659302 9.39248657 C-2.22674408 8.45166229 -2.22689514 7.51083801 -2.22705078 6.54150391 C-2.231492 5.71099518 -2.23593323 4.88048645 -2.24050903 4.02481079 C-2 2 -2 2 0 0 Z " fill="#ECEDFA" transform="translate(40,17)"/>
<path d="M0 0 C2.0625 1.5625 2.0625 1.5625 3 4 C3.17821261 6.85140177 2.92914963 9.292848 2 12 C-0.93837168 14.85194898 -2.53597436 15 -6.625 15 C-10 14 -10 14 -12 11.875 C-13.30782688 8.11499772 -13.06090617 5.81926223 -12 2 C-8.81688665 -2.07438508 -4.54417813 -1.38635943 0 0 Z " fill="#6F79DA" transform="translate(47,74)"/>
<path d="M0 0 C2.0625 1.5625 2.0625 1.5625 3 4 C3.17821261 6.85140177 2.92914963 9.292848 2 12 C-0.93837168 14.85194898 -2.53597436 15 -6.625 15 C-10 14 -10 14 -12 11.875 C-13.30782688 8.11499772 -13.06090617 5.81926223 -12 2 C-8.81688665 -2.07438508 -4.54417813 -1.38635943 0 0 Z " fill="#6F79DA" transform="translate(95,26)"/>
</svg>
